G04*
G04 #@! TF.GenerationSoftware,Altium Limited,Altium Designer,21.0.8 (223)*
G04*
G04 Layer_Color=16711935*
%FSLAX25Y25*%
%MOIN*%
G70*
G04*
G04 #@! TF.SameCoordinates,24B65C91-686E-4BDF-BE13-0E35A49C72FF*
G04*
G04*
G04 #@! TF.FilePolarity,Negative*
G04*
G01*
G75*
%ADD38C,0.07099*%
%ADD39R,0.07099X0.07099*%
%ADD40O,0.10142X0.06598*%
%ADD41R,0.10142X0.06598*%
%ADD42C,0.06992*%
%ADD43R,0.06992X0.06992*%
%ADD44R,0.06992X0.06992*%
%ADD45O,0.10142X0.06598*%
%ADD46R,0.10142X0.06598*%
D38*
X204000Y317000D02*
D03*
X194000D02*
D03*
X184000D02*
D03*
X174000D02*
D03*
X164000D02*
D03*
X154000D02*
D03*
X144000D02*
D03*
X134000D02*
D03*
X164000Y307000D02*
D03*
X154000D02*
D03*
X144000D02*
D03*
X134000D02*
D03*
X124000D02*
D03*
X114000D02*
D03*
X104000D02*
D03*
X174000D02*
D03*
X184000D02*
D03*
X194000D02*
D03*
X204000D02*
D03*
X94000Y317000D02*
D03*
X104000D02*
D03*
X114000D02*
D03*
X124000D02*
D03*
X44000D02*
D03*
Y307000D02*
D03*
X34000Y317000D02*
D03*
Y307000D02*
D03*
X24000Y317000D02*
D03*
Y307000D02*
D03*
X14000Y317000D02*
D03*
X54000Y307000D02*
D03*
Y317000D02*
D03*
X79000Y34000D02*
D03*
Y24000D02*
D03*
X69000Y34000D02*
D03*
Y24000D02*
D03*
X59000Y34000D02*
D03*
Y24000D02*
D03*
X19000Y34000D02*
D03*
X29000Y24000D02*
D03*
Y34000D02*
D03*
X39000Y24000D02*
D03*
Y34000D02*
D03*
X49000Y24000D02*
D03*
Y34000D02*
D03*
D39*
X94000Y307000D02*
D03*
X14000D02*
D03*
X19000Y24000D02*
D03*
D40*
X205000Y42000D02*
D03*
Y52000D02*
D03*
Y62000D02*
D03*
Y72000D02*
D03*
Y82000D02*
D03*
Y92000D02*
D03*
Y102000D02*
D03*
Y112000D02*
D03*
Y122000D02*
D03*
Y132000D02*
D03*
Y142000D02*
D03*
Y152000D02*
D03*
Y162000D02*
D03*
Y172000D02*
D03*
Y182000D02*
D03*
Y192000D02*
D03*
Y202000D02*
D03*
Y212000D02*
D03*
Y222000D02*
D03*
Y232000D02*
D03*
X145000Y42000D02*
D03*
Y52000D02*
D03*
Y62000D02*
D03*
Y72000D02*
D03*
Y82000D02*
D03*
Y92000D02*
D03*
Y102000D02*
D03*
Y112000D02*
D03*
Y122000D02*
D03*
Y132000D02*
D03*
Y142000D02*
D03*
Y152000D02*
D03*
Y162000D02*
D03*
Y172000D02*
D03*
Y182000D02*
D03*
Y192000D02*
D03*
Y202000D02*
D03*
Y212000D02*
D03*
Y222000D02*
D03*
D41*
Y232000D02*
D03*
D42*
X195000Y42000D02*
D03*
Y52000D02*
D03*
Y62000D02*
D03*
Y72000D02*
D03*
Y82000D02*
D03*
Y162000D02*
D03*
Y172000D02*
D03*
Y182000D02*
D03*
Y192000D02*
D03*
Y202000D02*
D03*
Y212000D02*
D03*
Y222000D02*
D03*
Y152000D02*
D03*
Y142000D02*
D03*
Y132000D02*
D03*
Y122000D02*
D03*
Y112000D02*
D03*
Y102000D02*
D03*
Y92000D02*
D03*
X135000Y42000D02*
D03*
Y52000D02*
D03*
Y62000D02*
D03*
Y72000D02*
D03*
Y82000D02*
D03*
Y162000D02*
D03*
Y172000D02*
D03*
Y182000D02*
D03*
Y192000D02*
D03*
Y202000D02*
D03*
Y212000D02*
D03*
Y222000D02*
D03*
Y152000D02*
D03*
Y142000D02*
D03*
Y132000D02*
D03*
Y122000D02*
D03*
Y112000D02*
D03*
Y102000D02*
D03*
Y92000D02*
D03*
X20500Y208500D02*
D03*
D43*
X195000Y232000D02*
D03*
X135000D02*
D03*
D44*
X10500Y208500D02*
D03*
D45*
X45000Y81000D02*
D03*
Y71000D02*
D03*
X15000D02*
D03*
X46000Y124000D02*
D03*
Y114000D02*
D03*
X16000D02*
D03*
D46*
X15000Y81000D02*
D03*
X16000Y124000D02*
D03*
M02*
