G04*
G04 #@! TF.GenerationSoftware,Altium Limited,Altium Designer,21.0.8 (223)*
G04*
G04 Layer_Color=8388736*
%FSLAX25Y25*%
%MOIN*%
G70*
G04*
G04 #@! TF.SameCoordinates,24B65C91-686E-4BDF-BE13-0E35A49C72FF*
G04*
G04*
G04 #@! TF.FilePolarity,Negative*
G04*
G01*
G75*
%ADD27O,0.05811X0.01480*%
%ADD28O,0.01480X0.05811*%
G04:AMPARAMS|DCode=29|XSize=48.27mil|YSize=60.08mil|CornerRadius=12.82mil|HoleSize=0mil|Usage=FLASHONLY|Rotation=90.000|XOffset=0mil|YOffset=0mil|HoleType=Round|Shape=RoundedRectangle|*
%AMROUNDEDRECTD29*
21,1,0.04827,0.03445,0,0,90.0*
21,1,0.02264,0.06008,0,0,90.0*
1,1,0.02563,0.01722,0.01132*
1,1,0.02563,0.01722,-0.01132*
1,1,0.02563,-0.01722,-0.01132*
1,1,0.02563,-0.01722,0.01132*
%
%ADD29ROUNDEDRECTD29*%
G04:AMPARAMS|DCode=30|XSize=26.61mil|YSize=42.36mil|CornerRadius=7.4mil|HoleSize=0mil|Usage=FLASHONLY|Rotation=0.000|XOffset=0mil|YOffset=0mil|HoleType=Round|Shape=RoundedRectangle|*
%AMROUNDEDRECTD30*
21,1,0.02661,0.02756,0,0,0.0*
21,1,0.01181,0.04236,0,0,0.0*
1,1,0.01480,0.00591,-0.01378*
1,1,0.01480,-0.00591,-0.01378*
1,1,0.01480,-0.00591,0.01378*
1,1,0.01480,0.00591,0.01378*
%
%ADD30ROUNDEDRECTD30*%
%ADD31R,0.04433X0.04236*%
%ADD32O,0.07780X0.02661*%
%ADD33R,0.04236X0.04433*%
%ADD34R,0.03252X0.05417*%
%ADD35O,0.02661X0.06008*%
G04:AMPARAMS|DCode=36|XSize=34.49mil|YSize=32.52mil|CornerRadius=8.88mil|HoleSize=0mil|Usage=FLASHONLY|Rotation=90.000|XOffset=0mil|YOffset=0mil|HoleType=Round|Shape=RoundedRectangle|*
%AMROUNDEDRECTD36*
21,1,0.03449,0.01476,0,0,90.0*
21,1,0.01673,0.03252,0,0,90.0*
1,1,0.01776,0.00738,0.00837*
1,1,0.01776,0.00738,-0.00837*
1,1,0.01776,-0.00738,-0.00837*
1,1,0.01776,-0.00738,0.00837*
%
%ADD36ROUNDEDRECTD36*%
%ADD37R,0.05417X0.03252*%
%ADD38C,0.07099*%
%ADD39R,0.07099X0.07099*%
%ADD40O,0.10142X0.06598*%
%ADD41R,0.10142X0.06598*%
%ADD42C,0.06992*%
%ADD43R,0.06992X0.06992*%
%ADD44R,0.06992X0.06992*%
%ADD45O,0.10142X0.06598*%
%ADD46R,0.10142X0.06598*%
D27*
X36685Y176626D02*
D03*
X97315Y166783D02*
D03*
Y208122D02*
D03*
Y206153D02*
D03*
Y204185D02*
D03*
Y202217D02*
D03*
Y200248D02*
D03*
Y198280D02*
D03*
Y196311D02*
D03*
Y194343D02*
D03*
Y192374D02*
D03*
Y190405D02*
D03*
Y188437D02*
D03*
Y186469D02*
D03*
Y184500D02*
D03*
Y182531D02*
D03*
Y180563D02*
D03*
Y178595D02*
D03*
Y176626D02*
D03*
Y174657D02*
D03*
Y172689D02*
D03*
Y170721D02*
D03*
Y168752D02*
D03*
Y164815D02*
D03*
Y162847D02*
D03*
Y160878D02*
D03*
X36685D02*
D03*
Y162847D02*
D03*
Y164815D02*
D03*
Y166783D02*
D03*
Y168752D02*
D03*
Y170721D02*
D03*
Y172689D02*
D03*
Y174657D02*
D03*
Y178595D02*
D03*
Y180563D02*
D03*
Y182531D02*
D03*
Y184500D02*
D03*
Y186469D02*
D03*
Y188437D02*
D03*
Y190405D02*
D03*
Y192374D02*
D03*
Y194343D02*
D03*
Y196311D02*
D03*
Y198280D02*
D03*
Y200248D02*
D03*
Y202217D02*
D03*
Y204185D02*
D03*
Y206153D02*
D03*
Y208122D02*
D03*
D28*
X82748Y154185D02*
D03*
X88653D02*
D03*
X43378Y214815D02*
D03*
X45347D02*
D03*
X47315D02*
D03*
X49283D02*
D03*
X51252D02*
D03*
X53220D02*
D03*
X55189D02*
D03*
X57157D02*
D03*
X59126D02*
D03*
X61094D02*
D03*
X63063D02*
D03*
X65031D02*
D03*
X67000D02*
D03*
X68968D02*
D03*
X70937D02*
D03*
X72905D02*
D03*
X74874D02*
D03*
X76842D02*
D03*
X78811D02*
D03*
X80779D02*
D03*
X82748D02*
D03*
X84716D02*
D03*
X86685D02*
D03*
X88653D02*
D03*
X90622D02*
D03*
Y154185D02*
D03*
X86685D02*
D03*
X84716D02*
D03*
X80779D02*
D03*
X78811D02*
D03*
X76842D02*
D03*
X74874D02*
D03*
X72905D02*
D03*
X70937D02*
D03*
X68968D02*
D03*
X67000D02*
D03*
X65031D02*
D03*
X63063D02*
D03*
X61094D02*
D03*
X59126D02*
D03*
X57157D02*
D03*
X55189D02*
D03*
X53220D02*
D03*
X51252D02*
D03*
X49283D02*
D03*
X47315D02*
D03*
X45347D02*
D03*
X43378D02*
D03*
D29*
X99000Y43630D02*
D03*
Y50717D02*
D03*
X123000D02*
D03*
Y43630D02*
D03*
D30*
X114740Y51347D02*
D03*
X107260D02*
D03*
X114740Y43000D02*
D03*
X111000D02*
D03*
X107260D02*
D03*
D31*
X128094Y296000D02*
D03*
X134000D02*
D03*
X140953Y33000D02*
D03*
X135047D02*
D03*
X67000Y142500D02*
D03*
X61094D02*
D03*
X67000Y226500D02*
D03*
X72905D02*
D03*
X47500D02*
D03*
X41594D02*
D03*
X78000Y295000D02*
D03*
X72095D02*
D03*
D32*
X134000Y243000D02*
D03*
Y248000D02*
D03*
Y253000D02*
D03*
Y258000D02*
D03*
Y263000D02*
D03*
Y268000D02*
D03*
Y273000D02*
D03*
Y278000D02*
D03*
Y283000D02*
D03*
Y288000D02*
D03*
X96598Y243000D02*
D03*
Y248000D02*
D03*
Y253000D02*
D03*
Y258000D02*
D03*
Y263000D02*
D03*
Y268000D02*
D03*
Y273000D02*
D03*
Y278000D02*
D03*
Y283000D02*
D03*
Y288000D02*
D03*
X78000Y243000D02*
D03*
Y248000D02*
D03*
Y253000D02*
D03*
Y258000D02*
D03*
Y263000D02*
D03*
Y268000D02*
D03*
Y273000D02*
D03*
Y278000D02*
D03*
Y283000D02*
D03*
Y288000D02*
D03*
X40598Y243000D02*
D03*
Y248000D02*
D03*
Y253000D02*
D03*
Y258000D02*
D03*
Y263000D02*
D03*
Y268000D02*
D03*
Y273000D02*
D03*
Y278000D02*
D03*
Y283000D02*
D03*
Y288000D02*
D03*
D33*
X25000Y200453D02*
D03*
Y194547D02*
D03*
Y154047D02*
D03*
Y159953D02*
D03*
X109000Y161000D02*
D03*
Y155095D02*
D03*
Y172500D02*
D03*
Y178405D02*
D03*
X170000Y281000D02*
D03*
Y275095D02*
D03*
D34*
X174126Y250000D02*
D03*
X182000D02*
D03*
X64874Y71000D02*
D03*
X57000D02*
D03*
X64874Y81000D02*
D03*
X57000D02*
D03*
X64874Y114000D02*
D03*
X57000D02*
D03*
X64874Y124000D02*
D03*
X57000D02*
D03*
D35*
X207000Y281000D02*
D03*
X202000D02*
D03*
X197000D02*
D03*
X192000D02*
D03*
X187000D02*
D03*
X182000D02*
D03*
X177000D02*
D03*
X207000Y259543D02*
D03*
X202000D02*
D03*
X197000D02*
D03*
X192000D02*
D03*
X187000D02*
D03*
X182000D02*
D03*
X177000D02*
D03*
D36*
X80500Y97701D02*
D03*
Y104000D02*
D03*
X91500Y97701D02*
D03*
Y104000D02*
D03*
X113500Y97701D02*
D03*
Y104000D02*
D03*
X102500Y97701D02*
D03*
Y104000D02*
D03*
D37*
X80500Y116000D02*
D03*
Y123874D02*
D03*
X91500Y116000D02*
D03*
Y123874D02*
D03*
X113500Y116000D02*
D03*
Y123874D02*
D03*
X102500Y116000D02*
D03*
Y123874D02*
D03*
D38*
X204000Y317000D02*
D03*
X194000D02*
D03*
X184000D02*
D03*
X174000D02*
D03*
X164000D02*
D03*
X154000D02*
D03*
X144000D02*
D03*
X134000D02*
D03*
X164000Y307000D02*
D03*
X154000D02*
D03*
X144000D02*
D03*
X134000D02*
D03*
X124000D02*
D03*
X114000D02*
D03*
X104000D02*
D03*
X174000D02*
D03*
X184000D02*
D03*
X194000D02*
D03*
X204000D02*
D03*
X94000Y317000D02*
D03*
X104000D02*
D03*
X114000D02*
D03*
X124000D02*
D03*
X44000D02*
D03*
Y307000D02*
D03*
X34000Y317000D02*
D03*
Y307000D02*
D03*
X24000Y317000D02*
D03*
Y307000D02*
D03*
X14000Y317000D02*
D03*
X54000Y307000D02*
D03*
Y317000D02*
D03*
X79000Y34000D02*
D03*
Y24000D02*
D03*
X69000Y34000D02*
D03*
Y24000D02*
D03*
X59000Y34000D02*
D03*
Y24000D02*
D03*
X19000Y34000D02*
D03*
X29000Y24000D02*
D03*
Y34000D02*
D03*
X39000Y24000D02*
D03*
Y34000D02*
D03*
X49000Y24000D02*
D03*
Y34000D02*
D03*
D39*
X94000Y307000D02*
D03*
X14000D02*
D03*
X19000Y24000D02*
D03*
D40*
X205000Y42000D02*
D03*
Y52000D02*
D03*
Y62000D02*
D03*
Y72000D02*
D03*
Y82000D02*
D03*
Y92000D02*
D03*
Y102000D02*
D03*
Y112000D02*
D03*
Y122000D02*
D03*
Y132000D02*
D03*
Y142000D02*
D03*
Y152000D02*
D03*
Y162000D02*
D03*
Y172000D02*
D03*
Y182000D02*
D03*
Y192000D02*
D03*
Y202000D02*
D03*
Y212000D02*
D03*
Y222000D02*
D03*
Y232000D02*
D03*
X145000Y42000D02*
D03*
Y52000D02*
D03*
Y62000D02*
D03*
Y72000D02*
D03*
Y82000D02*
D03*
Y92000D02*
D03*
Y102000D02*
D03*
Y112000D02*
D03*
Y122000D02*
D03*
Y132000D02*
D03*
Y142000D02*
D03*
Y152000D02*
D03*
Y162000D02*
D03*
Y172000D02*
D03*
Y182000D02*
D03*
Y192000D02*
D03*
Y202000D02*
D03*
Y212000D02*
D03*
Y222000D02*
D03*
D41*
Y232000D02*
D03*
D42*
X195000Y42000D02*
D03*
Y52000D02*
D03*
Y62000D02*
D03*
Y72000D02*
D03*
Y82000D02*
D03*
Y162000D02*
D03*
Y172000D02*
D03*
Y182000D02*
D03*
Y192000D02*
D03*
Y202000D02*
D03*
Y212000D02*
D03*
Y222000D02*
D03*
Y152000D02*
D03*
Y142000D02*
D03*
Y132000D02*
D03*
Y122000D02*
D03*
Y112000D02*
D03*
Y102000D02*
D03*
Y92000D02*
D03*
X135000Y42000D02*
D03*
Y52000D02*
D03*
Y62000D02*
D03*
Y72000D02*
D03*
Y82000D02*
D03*
Y162000D02*
D03*
Y172000D02*
D03*
Y182000D02*
D03*
Y192000D02*
D03*
Y202000D02*
D03*
Y212000D02*
D03*
Y222000D02*
D03*
Y152000D02*
D03*
Y142000D02*
D03*
Y132000D02*
D03*
Y122000D02*
D03*
Y112000D02*
D03*
Y102000D02*
D03*
Y92000D02*
D03*
X20500Y208500D02*
D03*
D43*
X195000Y232000D02*
D03*
X135000D02*
D03*
D44*
X10500Y208500D02*
D03*
D45*
X45000Y81000D02*
D03*
Y71000D02*
D03*
X15000D02*
D03*
X46000Y124000D02*
D03*
Y114000D02*
D03*
X16000D02*
D03*
D46*
X15000Y81000D02*
D03*
X16000Y124000D02*
D03*
M02*
