G04*
G04 #@! TF.GenerationSoftware,Altium Limited,Altium Designer,21.0.8 (223)*
G04*
G04 Layer_Color=8421504*
%FSLAX25Y25*%
%MOIN*%
G70*
G04*
G04 #@! TF.SameCoordinates,24B65C91-686E-4BDF-BE13-0E35A49C72FF*
G04*
G04*
G04 #@! TF.FilePolarity,Positive*
G04*
G01*
G75*
%ADD16O,0.05512X0.01181*%
%ADD17O,0.01181X0.05512*%
G04:AMPARAMS|DCode=18|XSize=45.28mil|YSize=57.09mil|CornerRadius=11.32mil|HoleSize=0mil|Usage=FLASHONLY|Rotation=90.000|XOffset=0mil|YOffset=0mil|HoleType=Round|Shape=RoundedRectangle|*
%AMROUNDEDRECTD18*
21,1,0.04528,0.03445,0,0,90.0*
21,1,0.02264,0.05709,0,0,90.0*
1,1,0.02264,0.01722,0.01132*
1,1,0.02264,0.01722,-0.01132*
1,1,0.02264,-0.01722,-0.01132*
1,1,0.02264,-0.01722,0.01132*
%
%ADD18ROUNDEDRECTD18*%
G04:AMPARAMS|DCode=19|XSize=23.62mil|YSize=39.37mil|CornerRadius=5.91mil|HoleSize=0mil|Usage=FLASHONLY|Rotation=0.000|XOffset=0mil|YOffset=0mil|HoleType=Round|Shape=RoundedRectangle|*
%AMROUNDEDRECTD19*
21,1,0.02362,0.02756,0,0,0.0*
21,1,0.01181,0.03937,0,0,0.0*
1,1,0.01181,0.00591,-0.01378*
1,1,0.01181,-0.00591,-0.01378*
1,1,0.01181,-0.00591,0.01378*
1,1,0.01181,0.00591,0.01378*
%
%ADD19ROUNDEDRECTD19*%
%ADD20R,0.04134X0.03937*%
%ADD21O,0.07480X0.02362*%
%ADD22R,0.03937X0.04134*%
%ADD23R,0.02953X0.05118*%
%ADD24O,0.02362X0.05709*%
G04:AMPARAMS|DCode=25|XSize=31.5mil|YSize=29.53mil|CornerRadius=7.38mil|HoleSize=0mil|Usage=FLASHONLY|Rotation=90.000|XOffset=0mil|YOffset=0mil|HoleType=Round|Shape=RoundedRectangle|*
%AMROUNDEDRECTD25*
21,1,0.03150,0.01476,0,0,90.0*
21,1,0.01673,0.02953,0,0,90.0*
1,1,0.01476,0.00738,0.00837*
1,1,0.01476,0.00738,-0.00837*
1,1,0.01476,-0.00738,-0.00837*
1,1,0.01476,-0.00738,0.00837*
%
%ADD25ROUNDEDRECTD25*%
%ADD26R,0.05118X0.02953*%
D16*
X36685Y176626D02*
D03*
X97315Y166783D02*
D03*
Y208122D02*
D03*
Y206153D02*
D03*
Y204185D02*
D03*
Y202217D02*
D03*
Y200248D02*
D03*
Y198280D02*
D03*
Y196311D02*
D03*
Y194343D02*
D03*
Y192374D02*
D03*
Y190405D02*
D03*
Y188437D02*
D03*
Y186469D02*
D03*
Y184500D02*
D03*
Y182531D02*
D03*
Y180563D02*
D03*
Y178595D02*
D03*
Y176626D02*
D03*
Y174657D02*
D03*
Y172689D02*
D03*
Y170721D02*
D03*
Y168752D02*
D03*
Y164815D02*
D03*
Y162847D02*
D03*
Y160878D02*
D03*
X36685D02*
D03*
Y162847D02*
D03*
Y164815D02*
D03*
Y166783D02*
D03*
Y168752D02*
D03*
Y170721D02*
D03*
Y172689D02*
D03*
Y174657D02*
D03*
Y178595D02*
D03*
Y180563D02*
D03*
Y182531D02*
D03*
Y184500D02*
D03*
Y186469D02*
D03*
Y188437D02*
D03*
Y190405D02*
D03*
Y192374D02*
D03*
Y194343D02*
D03*
Y196311D02*
D03*
Y198280D02*
D03*
Y200248D02*
D03*
Y202217D02*
D03*
Y204185D02*
D03*
Y206153D02*
D03*
Y208122D02*
D03*
D17*
X82748Y154185D02*
D03*
X88653D02*
D03*
X43378Y214815D02*
D03*
X45347D02*
D03*
X47315D02*
D03*
X49283D02*
D03*
X51252D02*
D03*
X53220D02*
D03*
X55189D02*
D03*
X57157D02*
D03*
X59126D02*
D03*
X61094D02*
D03*
X63063D02*
D03*
X65031D02*
D03*
X67000D02*
D03*
X68968D02*
D03*
X70937D02*
D03*
X72905D02*
D03*
X74874D02*
D03*
X76842D02*
D03*
X78811D02*
D03*
X80779D02*
D03*
X82748D02*
D03*
X84716D02*
D03*
X86685D02*
D03*
X88653D02*
D03*
X90622D02*
D03*
Y154185D02*
D03*
X86685D02*
D03*
X84716D02*
D03*
X80779D02*
D03*
X78811D02*
D03*
X76842D02*
D03*
X74874D02*
D03*
X72905D02*
D03*
X70937D02*
D03*
X68968D02*
D03*
X67000D02*
D03*
X65031D02*
D03*
X63063D02*
D03*
X61094D02*
D03*
X59126D02*
D03*
X57157D02*
D03*
X55189D02*
D03*
X53220D02*
D03*
X51252D02*
D03*
X49283D02*
D03*
X47315D02*
D03*
X45347D02*
D03*
X43378D02*
D03*
D18*
X99000Y43630D02*
D03*
Y50717D02*
D03*
X123000D02*
D03*
Y43630D02*
D03*
D19*
X114740Y51347D02*
D03*
X107260D02*
D03*
X114740Y43000D02*
D03*
X111000D02*
D03*
X107260D02*
D03*
D20*
X128094Y296000D02*
D03*
X134000D02*
D03*
X140953Y33000D02*
D03*
X135047D02*
D03*
X67000Y142500D02*
D03*
X61094D02*
D03*
X67000Y226500D02*
D03*
X72905D02*
D03*
X47500D02*
D03*
X41594D02*
D03*
X78000Y295000D02*
D03*
X72095D02*
D03*
D21*
X134000Y243000D02*
D03*
Y248000D02*
D03*
Y253000D02*
D03*
Y258000D02*
D03*
Y263000D02*
D03*
Y268000D02*
D03*
Y273000D02*
D03*
Y278000D02*
D03*
Y283000D02*
D03*
Y288000D02*
D03*
X96598Y243000D02*
D03*
Y248000D02*
D03*
Y253000D02*
D03*
Y258000D02*
D03*
Y263000D02*
D03*
Y268000D02*
D03*
Y273000D02*
D03*
Y278000D02*
D03*
Y283000D02*
D03*
Y288000D02*
D03*
X78000Y243000D02*
D03*
Y248000D02*
D03*
Y253000D02*
D03*
Y258000D02*
D03*
Y263000D02*
D03*
Y268000D02*
D03*
Y273000D02*
D03*
Y278000D02*
D03*
Y283000D02*
D03*
Y288000D02*
D03*
X40598Y243000D02*
D03*
Y248000D02*
D03*
Y253000D02*
D03*
Y258000D02*
D03*
Y263000D02*
D03*
Y268000D02*
D03*
Y273000D02*
D03*
Y278000D02*
D03*
Y283000D02*
D03*
Y288000D02*
D03*
D22*
X25000Y200453D02*
D03*
Y194547D02*
D03*
Y154047D02*
D03*
Y159953D02*
D03*
X109000Y161000D02*
D03*
Y155095D02*
D03*
Y172500D02*
D03*
Y178405D02*
D03*
X170000Y281000D02*
D03*
Y275095D02*
D03*
D23*
X174126Y250000D02*
D03*
X182000D02*
D03*
X64874Y71000D02*
D03*
X57000D02*
D03*
X64874Y81000D02*
D03*
X57000D02*
D03*
X64874Y114000D02*
D03*
X57000D02*
D03*
X64874Y124000D02*
D03*
X57000D02*
D03*
D24*
X207000Y281000D02*
D03*
X202000D02*
D03*
X197000D02*
D03*
X192000D02*
D03*
X187000D02*
D03*
X182000D02*
D03*
X177000D02*
D03*
X207000Y259543D02*
D03*
X202000D02*
D03*
X197000D02*
D03*
X192000D02*
D03*
X187000D02*
D03*
X182000D02*
D03*
X177000D02*
D03*
D25*
X80500Y97701D02*
D03*
Y104000D02*
D03*
X91500Y97701D02*
D03*
Y104000D02*
D03*
X113500Y97701D02*
D03*
Y104000D02*
D03*
X102500Y97701D02*
D03*
Y104000D02*
D03*
D26*
X80500Y116000D02*
D03*
Y123874D02*
D03*
X91500Y116000D02*
D03*
Y123874D02*
D03*
X113500Y116000D02*
D03*
Y123874D02*
D03*
X102500Y116000D02*
D03*
Y123874D02*
D03*
M02*
