M48
;Layer_Color=9474304
;FILE_FORMAT=2:5
INCH,TZ
;TYPE=PLATED
T1F00S00C0.01181
T2F00S00C0.01575
T3F00S00C0.02362
T4F00S00C0.03000
T5F00S00C0.03150
T6F00S00C0.03937
T7F00S00C0.04000
%
T01
X24000Y43500
X64000Y39939
X81500Y41993
X49500Y93000
X57000Y108000
X63638Y135638
X66500Y138197
X70000
X72000Y141500
X64941Y146437
X59823Y146534
X64441Y160000
X53500
X49000Y165500
X47581Y169500
X49000Y174500
X62081Y176500
X67670Y175531
X76506Y181964
X81646Y181478
X80500Y171993
X77919Y165919
X76252Y159500
X83500Y161000
X87053Y159828
X92500Y164500
Y174500
X92654Y180059
X87386Y147004
X84599Y145099
X36000Y145000
X34000Y133059
X28000Y132000
X25000Y130500
X14000Y141000
X22500Y173000
X15500Y184500
X12500Y190500
X42000Y166193
X19731Y92000
X94528Y147000
X98909Y152000
X96000Y155000
X102034Y162681
X105000Y159896
X104500Y175500
X103500Y179000
X114062Y152062
X123000Y148164
X149500Y157000
X182500Y100500
X178000Y93079
X116500Y57922
X115500Y264500
X118500Y268500
X112500Y276581
Y281500
X109000Y274500
X105256Y270244
X102500Y266000
X199500Y336500
X73500Y337000
X72095Y300500
X69000Y283000
Y277500
Y273000
Y267551
X65426Y264000
X49654Y244000
X48500Y238240
X48313Y231777
X43500Y230500
X44000Y221000
X49185
X39428Y222071
X17500Y226000
X13500Y226157
X7059Y218000
X9000Y215000
X26000Y204500
X29833Y197689
X63500Y196000
X68000Y197000
X73083Y200000
X76218Y205000
X81764Y207374
X72315Y209500
X67232Y207321
X58000Y208500
X71000Y221000
X75718Y220114
X78500Y226500
X78051Y229670
X77937Y232818
X7000Y336500
T02
X64874Y97500
X74500
X107500Y57000
X127500Y285000
X170000Y286764
X163000Y268500
X170000Y249500
X192000Y265500
X187000Y275000
X207000Y266000
X59500Y258000
X54500Y253151
X50361Y248440
X78000Y318000
T03
X64500Y169500
X67000Y184500
X156000Y41500
T04
X15000Y71000
Y81000
X45000
Y71000
X46000Y114000
Y124000
X16000
Y114000
T05
X145000Y42000
Y52000
Y62000
Y72000
Y82000
Y92000
Y102000
Y112000
Y122000
Y132000
Y142000
Y152000
Y162000
Y172000
Y182000
X205000
Y172000
Y162000
Y152000
Y142000
Y132000
Y122000
Y112000
Y102000
Y92000
Y82000
Y72000
Y62000
Y52000
Y42000
Y192000
Y202000
Y212000
Y222000
Y232000
X145000
Y222000
Y212000
Y202000
Y192000
T06
X135000Y42000
Y52000
Y62000
Y72000
Y82000
Y92000
Y102000
Y112000
Y122000
Y132000
Y142000
Y152000
Y162000
Y172000
Y182000
X195000
Y172000
Y162000
Y152000
Y142000
Y132000
Y122000
Y112000
Y102000
Y92000
Y82000
Y72000
Y62000
Y52000
Y42000
Y192000
Y202000
Y212000
Y222000
Y232000
X135000
Y222000
Y212000
Y202000
Y192000
X20500Y208500
X10500
T07
X19000Y24000
Y34000
X29000
Y24000
X39000
Y34000
X49000
X59000
X69000
X79000
Y24000
X69000
X59000
X49000
X94000Y307000
X104000
X114000
X124000
X134000
Y317000
X144000
X154000
X164000
X174000
X184000
X194000
X204000
Y307000
X194000
X184000
X174000
X164000
X154000
X144000
X124000Y317000
X114000
X104000
X94000
X54000
X44000
Y307000
X34000
Y317000
X24000
Y307000
X14000
Y317000
X54000Y307000
M30
